<svg aria-hidden="true" style="position: absolute; width: 0; height: 0; overflow: hidden;" version="1.1" xmlns="http://www.w3.org/2000/svg" xmlns:xlink="http://www.w3.org/1999/xlink">
<defs>
<symbol id="icon-img-one" viewBox="0 0 17 32">
<path d="M15.468 17.763l0.829-5.448h-5.272v-3.55c0-1.539 0.712-2.961 3.080-2.961h2.427v-4.679s-2.189-0.414-4.261-0.414c-4.325 0-7.168 2.664-7.168 7.4v4.205h-4.854v5.447h4.856v13.263h5.922v-13.263h4.441z"></path>
</symbol>
<symbol id="icon-img-four" viewBox="0 0 30 32">
<path d="M15.111 8.498c-4.19 0-7.587 3.396-7.588 7.586v0c-0 0.012-0 0.027-0 0.041 0 4.168 3.379 7.547 7.547 7.547 0.014 0 0.029-0 0.043-0h-0.002c4.191 0 7.588-3.397 7.588-7.588v0c0-4.156-3.431-7.588-7.588-7.588zM15.111 21.031c-0.002 0-0.003 0-0.005 0-2.729 0-4.942-2.213-4.942-4.942 0-0.002 0-0.004 0-0.006v0c0-2.706 2.174-4.884 4.948-4.884 0.003 0 0.007 0 0.011 0 2.69 0 4.871 2.181 4.871 4.871 0 0.004 0 0.008 0 0.011v-0.001c0 2.77-2.178 4.948-4.882 4.948zM24.743 8.231c0-0.002 0-0.003 0-0.005 0-0.98-0.794-1.774-1.774-1.774-0.003 0-0.005 0-0.008 0h0c-0.002 0-0.005 0-0.007 0-0.98 0-1.774 0.794-1.774 1.774 0 0.002 0 0.005 0 0.008v-0c0 0.002 0 0.005 0 0.007 0 0.98 0.794 1.774 1.774 1.774 0.003 0 0.005 0 0.008 0h-0c0.002 0 0.005 0 0.007 0 0.98 0 1.774-0.794 1.774-1.774 0-0.002 0-0.005 0-0.008v0zM29.756 10.014c-0.132-2.375-0.658-4.487-2.375-6.201-1.714-1.716-3.826-2.244-6.201-2.375-2.441-0.133-9.764-0.133-12.203 0-2.375 0.132-4.421 0.658-6.201 2.375-1.717 1.714-2.245 3.826-2.377 6.201-0.133 2.441-0.133 9.764 0 12.204 0.132 2.375 0.658 4.42 2.375 6.201 1.781 1.716 3.826 2.244 6.201 2.375 2.441 0.133 9.764 0.133 12.204 0 2.375-0.132 4.487-0.658 6.201-2.375 1.716-1.781 2.244-3.826 2.375-6.201 0.133-2.441 0.133-9.764 0-12.204zM26.59 24.791c-0.462 1.319-1.518 2.311-2.772 2.837-1.979 0.791-6.596 0.594-8.708 0.594-2.178 0-6.795 0.197-8.708-0.594-1.304-0.52-2.318-1.533-2.825-2.804l-0.012-0.034c-0.791-1.913-0.594-6.532-0.594-8.708 0-2.112-0.197-6.729 0.594-8.709 0.543-1.271 1.55-2.256 2.803-2.758l0.034-0.012c1.913-0.791 6.53-0.594 8.708-0.594 2.112 0 6.729-0.197 8.708 0.594 1.255 0.462 2.244 1.516 2.772 2.77 0.791 1.98 0.594 6.597 0.594 8.709 0 2.176 0.197 6.795-0.594 8.708z"></path>
</symbol>
<symbol id="icon-img-three" viewBox="0 0 30 32">
<path d="M6.852 30.441v-19.787h-6.152v19.787h6.155zM3.744 8.008c1.986 0 3.575-1.655 3.575-3.64 0-1.92-1.589-3.507-3.575-3.507-1.922 0-3.509 1.589-3.509 3.507 0 1.986 1.589 3.64 3.507 3.64zM29.816 30.441h0.066v-10.854c0-5.293-1.192-9.397-7.413-9.397-2.978 0-4.962 1.655-5.822 3.177h-0.066v-2.714h-5.892v19.787h6.155v-9.794c0-2.581 0.463-5.030 3.64-5.030 3.176 0 3.243 2.912 3.243 5.227v9.596h6.088z"></path>
</symbol>
<symbol id="icon-img-two" viewBox="0 0 38 32">
<path d="M34.426 8.034c1.525-1.132 2.817-2.472 3.863-3.995l0.037-0.057c-1.313 0.601-2.837 1.026-4.437 1.196l-0.064 0.006c1.636-0.973 2.861-2.49 3.437-4.298l0.015-0.054c-1.425 0.862-3.079 1.536-4.838 1.931l-0.111 0.021c-1.439-1.525-3.474-2.475-5.731-2.475-0.016 0-0.032 0-0.048 0h0.002c-0.001 0-0.001 0-0.002 0-4.348 0-7.872 3.524-7.872 7.872v0c0 0.602 0.075 1.201 0.224 1.803-6.564-0.395-12.332-3.505-16.245-8.212l-0.030-0.037c-0.66 1.108-1.050 2.444-1.050 3.871 0 0.036 0 0.073 0.001 0.109l-0-0.005c0 2.699 1.35 5.099 3.526 6.524-1.276-0.073-2.551-0.371-3.601-0.975v0.075c0 0.001 0 0.002 0 0.003 0 3.794 2.679 6.961 6.248 7.715l0.051 0.009c-0.599 0.149-1.35 0.299-2.025 0.299-0.525 0-0.975-0.075-1.5-0.149 0.975 3.149 3.9 5.399 7.349 5.474-2.657 2.099-6.055 3.37-9.748 3.375h-0.001c-0.676 0-1.276-0.075-1.875-0.149 3.45 2.251 7.573 3.524 12.075 3.524 14.475 0 22.351-11.925 22.351-22.349v-1.050z"></path>
</symbol>
</defs>
</svg>
